<?xml version="1.0" encoding="utf-8"?>
<!-- Generator: Adobe Illustrator 24.3.0, SVG Export Plug-In . SVG Version: 6.00 Build 0)  -->
<svg version="1.1" id="Layer_1" xmlns="http://www.w3.org/2000/svg" xmlns:xlink="http://www.w3.org/1999/xlink" x="0px" y="0px"
	 viewBox="0 0 3600 1296" style="enable-background:new 0 0 3600 1296;" xml:space="preserve">
<style type="text/css">
	.st0{fill:#ED1C24;}
	.st1{fill-rule:evenodd;clip-rule:evenodd;fill:#ED1C24;}
	.st2{fill-rule:evenodd;clip-rule:evenodd;fill:#FFFFFF;}
	.st3{fill:#58595B;}
</style>
<g>
	<path class="st0" d="M2952.96,964.19l53.26-5.29c3.21,17.82,9.63,30.85,19.39,39.22c9.76,8.37,22.91,12.53,39.47,12.53
		c17.5,0,30.72-3.71,39.6-11.14c8.88-7.43,13.35-16.12,13.35-26.06c0-6.42-1.89-11.84-5.6-16.37c-3.72-4.47-10.26-8.37-19.58-11.65
		c-6.36-2.27-20.84-6.17-43.5-11.84c-29.15-7.3-49.61-16.24-61.38-26.88c-16.56-14.92-24.8-33.11-24.8-54.58
		c0-13.79,3.9-26.75,11.65-38.78c7.81-12.02,19.01-21.15,33.68-27.45c14.67-6.29,32.29-9.44,53.07-9.44
		c33.8,0,59.3,7.49,76.36,22.54c17.12,15.05,26.06,35.06,26.94,60.18l-54.77,1.89c-2.33-13.98-7.3-23.98-14.92-30.09
		c-7.62-6.11-19.07-9.19-34.31-9.19c-15.74,0-28.08,3.27-36.95,9.82c-5.73,4.22-8.62,9.82-8.62,16.87c0,6.42,2.71,11.9,8.12,16.43
		c6.86,5.85,23.54,11.9,50.05,18.19c26.5,6.23,46.08,12.78,58.73,19.45c12.72,6.74,22.66,15.86,29.84,27.51
		c7.18,11.65,10.76,26,10.76,43.06c0,15.49-4.28,30.03-12.9,43.56c-8.62,13.53-20.77,23.61-36.51,30.15
		c-15.74,6.61-35.38,9.88-58.86,9.88c-34.18,0-60.43-7.87-78.75-23.67C2967.44,1017.32,2956.55,994.34,2952.96,964.19
		 M2738.1,1051.82V783.65h54.77v222.47h135.6v45.7H2738.1z M2484.66,1051.82V781.38h200.19v45.7h-145.42v60.06h135.22v45.7h-135.22
		v73.28h150.71v45.7H2484.66z M2232.73,1051.82V781.38h200.19v45.7h-145.42v60.06h135.22v45.7h-135.22v73.28h150.71v45.7H2232.73z
		 M2062.82,1051.82V827.08h-80.08v-45.7h214.54v45.7h-79.7v224.74H2062.82z M1735.72,964.19l53.26-5.29
		c3.21,17.82,9.63,30.85,19.39,39.22c9.76,8.37,22.91,12.53,39.47,12.53c17.5,0,30.72-3.71,39.6-11.14
		c8.88-7.43,13.35-16.12,13.35-26.06c0-6.42-1.89-11.84-5.6-16.37c-3.72-4.47-10.26-8.37-19.58-11.65
		c-6.36-2.27-20.84-6.17-43.5-11.84c-29.15-7.3-49.61-16.24-61.38-26.88c-16.56-14.92-24.8-33.11-24.8-54.58
		c0-13.79,3.9-26.75,11.65-38.78c7.81-12.02,19.01-21.15,33.68-27.45c14.67-6.29,32.29-9.44,53.07-9.44
		c33.8,0,59.3,7.49,76.36,22.54c17.12,15.05,26.06,35.06,26.94,60.18l-54.77,1.89c-2.33-13.98-7.3-23.98-14.92-30.09
		c-7.62-6.11-19.07-9.19-34.31-9.19c-15.74,0-28.08,3.27-36.95,9.82c-5.73,4.22-8.62,9.82-8.62,16.87c0,6.42,2.71,11.9,8.12,16.43
		c6.86,5.85,23.54,11.9,50.05,18.19c26.5,6.23,46.08,12.78,58.73,19.45c12.72,6.74,22.66,15.86,29.84,27.51
		c7.18,11.65,10.76,26,10.76,43.06c0,15.49-4.28,30.03-12.9,43.56c-8.62,13.53-20.77,23.61-36.51,30.15
		c-15.74,6.61-35.38,9.88-58.86,9.88c-34.18,0-60.43-7.87-78.75-23.67C1750.2,1017.32,1739.31,994.34,1735.72,964.19z
		 M1372.36,1051.82V781.38h53.01l111.3,181.24V781.38h50.61v270.44h-54.7l-109.6-177.78v177.78H1372.36z M1243.12,944.55
		l-37.58-100.09l-36.51,100.09H1243.12z M1343.22,1051.82h-58.99l-23.36-61.57h-108.47l-22.47,61.57h-57.92l105-270.44h57.85
		L1343.22,1051.82z M992.76,1051.82V781.38h54.77v270.44H992.76z M728.37,964.19l53.26-5.29c3.21,17.82,9.63,30.85,19.39,39.22
		c9.76,8.37,22.91,12.53,39.47,12.53c17.5,0,30.72-3.71,39.6-11.14c8.88-7.43,13.35-16.12,13.35-26.06c0-6.42-1.89-11.84-5.6-16.37
		c-3.72-4.47-10.26-8.37-19.58-11.65c-6.36-2.27-20.84-6.17-43.5-11.84c-29.15-7.3-49.61-16.24-61.38-26.88
		c-16.56-14.92-24.8-33.11-24.8-54.58c0-13.79,3.9-26.75,11.65-38.78c7.81-12.02,19.01-21.15,33.68-27.45
		c14.67-6.29,32.29-9.44,53.07-9.44c33.8,0,59.3,7.49,76.36,22.54c17.12,15.05,26.06,35.06,26.94,60.18l-54.77,1.89
		c-2.33-13.98-7.3-23.98-14.92-30.09c-7.62-6.11-19.07-9.19-34.31-9.19c-15.74,0-28.08,3.27-36.95,9.82
		c-5.73,4.22-8.62,9.82-8.62,16.87c0,6.42,2.71,11.9,8.12,16.43c6.86,5.85,23.54,11.9,50.05,18.19
		c26.5,6.23,46.08,12.78,58.73,19.45c12.72,6.74,22.66,15.86,29.84,27.51c7.18,11.65,10.76,26,10.76,43.06
		c0,15.49-4.28,30.03-12.9,43.56c-8.62,13.53-20.77,23.61-36.51,30.15c-15.74,6.61-35.38,9.88-58.86,9.88
		c-34.18,0-60.43-7.87-78.75-23.67C742.84,1017.32,731.95,994.34,728.37,964.19z M613.48,944.55L575.9,844.46l-36.51,100.09H613.48z
		 M713.57,1051.82h-58.99l-23.36-61.57H522.76l-22.47,61.57h-57.92l105-270.44h57.85L713.57,1051.82z"/>
	<path class="st1" d="M1807.62,730.5c-154.49,0-279.73-125.24-279.73-279.73s125.24-279.73,279.73-279.73
		c154.49,0,279.73,125.24,279.73,279.73S1962.11,730.5,1807.62,730.5"/>
	<path class="st2" d="M1807.62,707.86c-141.99,0-257.09-115.1-257.09-257.09c0-141.99,115.1-257.09,257.09-257.09
		c141.99,0,257.09,115.1,257.09,257.09C2064.71,592.76,1949.61,707.86,1807.62,707.86"/>
	<path class="st1" d="M1807.62,691.61c-133.01,0-240.84-107.83-240.84-240.84s107.83-240.84,240.84-240.84
		s240.84,107.83,240.84,240.84S1940.63,691.61,1807.62,691.61"/>
	<polygon class="st2" points="1735.02,602.67 1706.58,602.67 1742.41,461.36 1768.24,462.52 	"/>
	<polygon class="st2" points="1751.12,425.96 1775.64,425.96 1804.07,300.02 1810.75,320.63 1835.41,320.63 1824.51,279.95 
		1787.24,279.95 	"/>
	<polygon class="st2" points="1817.85,354.87 1843.39,354.87 1888.95,530.42 1861.09,535.07 	"/>
	<polygon class="st2" points="1878.21,603.11 1869.21,570.9 1898.23,566.98 1908.53,602.97 	"/>
	<path class="st2" d="M1672.62,491.54h27.86c-3.47,22.67,2.51,38.07,19.15,45.27l-7.25,25.25
		C1682.01,551.65,1666.61,529.8,1672.62,491.54"/>
	<path class="st2" d="M1748.06,567.27l5.51-24.37l103.59-2.03c40.94-0.66,56.05-12.79,56.95-46.72
		c-0.39-25.47-13.41-32.18-37.8-34.82l-6.67-25.24c42.7,1.09,72.46,11.33,73.41,62.68c-1.65,57.66-33.52,70.94-85.02,70.51
		L1748.06,567.27z"/>
	<path class="st2" d="M1831.13,433.36l5.8,24.66l-102.43-2.61c-40.1-1.49-62.53-18.62-62.1-62.68c3.54-58.17,45.88-67,96.63-67.03
		l-6.67,25.25c-38.15,1.24-57.81,9.68-60.94,35.4c-2.24,30.28,11.62,43.04,35.69,44.69L1831.13,433.36z"/>
	<path class="st2" d="M1798.63,349.5l6.09-24.66l36.85,0.58c63.36-0.99,98.17,19.27,95.18,69.35h-27.86
		c0.09-29.45-14.68-44.17-56-45.27H1798.63z"/>
	<path class="st3" d="M2906.47,1110.02l-27.29,52.13v30.56h-9.69v-30.34l-26.58-52.35h10.99l18.53,37.37
		c0.24,0.45,0.91,2.15,2.03,5.08h0.18c0.37-1.32,1.1-3.01,2.19-5.08l19.37-37.37H2906.47z M2808.34,1192.71h-42.88v-82.69h9.69
		v73.95h33.19V1192.71z M2677.33,1118.76v33.9h10.14c6.69,0,11.79-1.53,15.3-4.59c3.52-3.05,5.28-7.36,5.28-12.94
		c0-10.93-6.46-16.38-19.35-16.38H2677.33z M2677.33,1161.41v31.3h-9.69v-82.69h22.72c8.84,0,15.69,2.15,20.55,6.46
		c4.86,4.29,7.28,10.36,7.28,18.19c0,7.84-2.7,14.26-8.09,19.26c-5.41,4.98-12.7,7.48-21.89,7.48H2677.33z M2579.52,1118.76v33.9
		h10.14c6.69,0,11.79-1.53,15.3-4.59c3.52-3.05,5.28-7.36,5.28-12.94c0-10.93-6.46-16.38-19.35-16.38H2579.52z M2579.52,1161.41
		v31.3h-9.69v-82.69h22.72c8.84,0,15.69,2.15,20.55,6.46c4.86,4.29,7.28,10.36,7.28,18.19c0,7.84-2.7,14.26-8.09,19.26
		c-5.41,4.98-12.7,7.48-21.89,7.48H2579.52z M2517.49,1159.28c0,23.23-10.47,34.85-31.44,34.85c-20.06,0-30.1-11.16-30.1-33.51
		v-50.6h9.69v49.93c0,16.95,7.15,25.44,21.46,25.44c13.8,0,20.71-8.19,20.71-24.57v-50.8h9.69V1159.28z M2358.68,1189.4v-11.46
		c1.3,1.16,2.87,2.19,4.71,3.11c1.81,0.93,3.74,1.71,5.75,2.34c2.03,0.63,4.04,1.12,6.08,1.48c2.03,0.33,3.92,0.51,5.65,0.51
		c5.95,0,10.4-1.1,13.33-3.31c2.93-2.21,4.41-5.4,4.41-9.53c0-2.25-0.49-4.17-1.48-5.83c-0.96-1.65-2.32-3.17-4.06-4.53
		c-1.73-1.38-3.78-2.68-6.14-3.94c-2.36-1.24-4.9-2.56-7.62-3.94c-2.9-1.48-5.57-2.95-8.07-4.45c-2.5-1.5-4.67-3.15-6.52-4.96
		c-1.83-1.81-3.29-3.86-4.35-6.14c-1.04-2.3-1.58-4.98-1.58-8.05c0-3.78,0.83-7.05,2.48-9.84c1.65-2.8,3.82-5.1,6.52-6.89
		c2.7-1.81,5.75-3.17,9.19-4.06c3.44-0.89,6.95-1.32,10.53-1.32c8.15,0,14.1,0.98,17.82,2.95v10.87c-4.88-3.39-11.14-5.08-18.8-5.08
		c-2.11,0-4.21,0.22-6.34,0.67c-2.11,0.43-4,1.16-5.65,2.17c-1.65,1-2.99,2.3-4.04,3.88c-1.04,1.58-1.55,3.5-1.55,5.79
		c0,2.11,0.39,3.94,1.18,5.47c0.79,1.54,1.95,2.95,3.49,4.21c1.54,1.28,3.41,2.5,5.61,3.7c2.2,1.18,4.76,2.5,7.64,3.92
		c2.95,1.46,5.77,2.99,8.41,4.63c2.66,1.61,4.98,3.39,6.97,5.36c2.01,1.97,3.58,4.13,4.76,6.52c1.16,2.38,1.75,5.12,1.75,8.21
		c0,4.08-0.79,7.52-2.38,10.36c-1.59,2.82-3.76,5.12-6.46,6.89c-2.72,1.77-5.85,3.05-9.37,3.84c-3.54,0.79-7.27,1.18-11.18,1.18
		c-1.3,0-2.92-0.1-4.84-0.31c-1.93-0.22-3.88-0.51-5.89-0.93c-1.99-0.39-3.88-0.91-5.67-1.5
		C2361.18,1190.8,2359.76,1190.13,2358.68,1189.4z M2282.8,1118.76h-32.25v28.59h29.77v8.74h-29.77v36.62h-9.69v-82.69h41.94
		V1118.76z M2154.17,1117.34c-8.7,0-15.75,3.13-21.17,9.41c-5.41,6.26-8.13,14.51-8.13,24.69c0,10.2,2.64,18.41,7.93,24.63
		c5.28,6.2,12.17,9.31,20.65,9.31c9.08,0,16.22-2.95,21.46-8.88c5.22-5.93,7.84-14.22,7.84-24.89c0-10.93-2.54-19.37-7.62-25.34
		C2170.08,1120.32,2163.07,1117.34,2154.17,1117.34z M2153.46,1194.13c-11.71,0-21.11-3.86-28.15-11.6
		c-7.07-7.74-10.59-17.8-10.59-30.18c0-13.31,3.6-23.94,10.79-31.86c7.19-7.93,16.97-11.89,29.35-11.89
		c11.42,0,20.61,3.84,27.58,11.54c6.99,7.7,10.48,17.76,10.48,30.18c0,13.51-3.58,24.18-10.73,32.03
		C2175.04,1190.21,2165.47,1194.13,2153.46,1194.13z M2040.19,1192.71h-43.83v-82.69h41.94v8.74h-32.25v27.52h29.89v8.74h-29.89
		v28.94h34.14V1192.71z M1947.79,1189.28c-6.1,3.23-13.72,4.84-22.82,4.84c-11.75,0-21.16-3.78-28.23-11.36
		c-7.07-7.58-10.61-17.54-10.61-29.85c0-13.23,3.98-23.92,11.93-32.09c7.95-8.15,18.04-12.23,30.26-12.23
		c7.84,0,14.33,1.14,19.47,3.43v10.28c-5.91-3.31-12.44-4.96-19.59-4.96c-9.49,0-17.17,3.17-23.08,9.53
		c-5.89,6.34-8.84,14.83-8.84,25.44c0,10.08,2.76,18.11,8.27,24.1c5.51,5.99,12.74,8.98,21.7,8.98c8.29,0,15.48-1.85,21.54-5.55
		V1189.28z M1798.92,1118.76v30h13.15c2.42,0,4.67-0.37,6.73-1.1c2.05-0.73,3.84-1.77,5.34-3.13c1.5-1.38,2.68-3.05,3.52-5.02
		c0.85-1.99,1.26-4.21,1.26-6.67c0-4.43-1.44-7.88-4.29-10.36c-2.87-2.48-7.01-3.72-12.44-3.72H1798.92z M1848.53,1192.71h-11.58
		l-13.84-23.19c-1.26-2.17-2.48-4-3.68-5.51c-1.18-1.52-2.4-2.76-3.66-3.72c-1.24-0.97-2.6-1.67-4.04-2.11
		c-1.44-0.45-3.05-0.67-4.86-0.67h-7.95v35.2h-9.69v-82.69h24.69c3.62,0,6.95,0.45,10.02,1.36c3.05,0.91,5.71,2.26,7.95,4.11
		c2.25,1.85,4.02,4.13,5.28,6.89c1.28,2.76,1.91,5.97,1.91,9.65c0,2.89-0.43,5.53-1.3,7.93c-0.87,2.4-2.11,4.55-3.7,6.42
		c-1.6,1.89-3.52,3.49-5.77,4.82c-2.27,1.32-4.81,2.34-7.6,3.07v0.24c1.38,0.61,2.58,1.32,3.58,2.11c1.02,0.79,1.99,1.73,2.91,2.8
		c0.93,1.08,1.85,2.3,2.74,3.66c0.91,1.38,1.91,2.95,3.03,4.76L1848.53,1192.71z M1736.9,1159.28c0,23.23-10.47,34.85-31.44,34.85
		c-20.06,0-30.1-11.16-30.1-33.51v-50.6h9.69v49.93c0,16.95,7.15,25.44,21.46,25.44c13.8,0,20.71-8.19,20.71-24.57v-50.8h9.69
		V1159.28z M1589.72,1117.34c-8.7,0-15.75,3.13-21.17,9.41c-5.41,6.26-8.13,14.51-8.13,24.69c0,10.2,2.64,18.41,7.93,24.63
		c5.28,6.2,12.17,9.31,20.65,9.31c9.08,0,16.22-2.95,21.46-8.88c5.22-5.93,7.84-14.22,7.84-24.89c0-10.93-2.54-19.37-7.62-25.34
		C1605.63,1120.32,1598.62,1117.34,1589.72,1117.34z M1589.01,1194.13c-11.71,0-21.11-3.86-28.15-11.6
		c-7.07-7.74-10.59-17.8-10.59-30.18c0-13.31,3.6-23.94,10.79-31.86c7.19-7.93,16.97-11.89,29.35-11.89
		c11.42,0,20.61,3.84,27.58,11.54c6.99,7.7,10.48,17.76,10.48,30.18c0,13.51-3.58,24.18-10.73,32.03
		C1610.59,1190.21,1601.02,1194.13,1589.01,1194.13z M1457.37,1189.4v-11.46c1.3,1.16,2.87,2.19,4.71,3.11
		c1.81,0.93,3.74,1.71,5.75,2.34c2.03,0.63,4.04,1.12,6.08,1.48c2.03,0.33,3.92,0.51,5.65,0.51c5.95,0,10.4-1.1,13.33-3.31
		c2.93-2.21,4.41-5.4,4.41-9.53c0-2.25-0.49-4.17-1.48-5.83c-0.96-1.65-2.32-3.17-4.06-4.53c-1.73-1.38-3.78-2.68-6.14-3.94
		c-2.36-1.24-4.9-2.56-7.62-3.94c-2.9-1.48-5.57-2.95-8.07-4.45c-2.5-1.5-4.67-3.15-6.52-4.96c-1.83-1.81-3.29-3.86-4.35-6.14
		c-1.04-2.3-1.58-4.98-1.58-8.05c0-3.78,0.83-7.05,2.48-9.84c1.65-2.8,3.82-5.1,6.52-6.89c2.7-1.81,5.75-3.17,9.19-4.06
		c3.45-0.89,6.95-1.32,10.53-1.32c8.15,0,14.1,0.98,17.82,2.95v10.87c-4.88-3.39-11.14-5.08-18.8-5.08c-2.11,0-4.21,0.22-6.34,0.67
		c-2.11,0.43-4,1.16-5.65,2.17c-1.65,1-2.99,2.3-4.04,3.88c-1.04,1.58-1.56,3.5-1.56,5.79c0,2.11,0.39,3.94,1.18,5.47
		c0.79,1.54,1.95,2.95,3.49,4.21c1.54,1.28,3.41,2.5,5.61,3.7c2.2,1.18,4.76,2.5,7.64,3.92c2.95,1.46,5.77,2.99,8.41,4.63
		c2.66,1.61,4.98,3.39,6.97,5.36c2.01,1.97,3.58,4.13,4.76,6.52c1.16,2.38,1.75,5.12,1.75,8.21c0,4.08-0.79,7.52-2.38,10.36
		c-1.59,2.82-3.76,5.12-6.46,6.89c-2.72,1.77-5.85,3.05-9.37,3.84c-3.54,0.79-7.27,1.18-11.18,1.18c-1.3,0-2.92-0.1-4.84-0.31
		c-1.93-0.22-3.88-0.51-5.89-0.93c-1.99-0.39-3.88-0.91-5.67-1.5C1459.87,1190.8,1458.46,1190.13,1457.37,1189.4z M1384.24,1118.76
		h-23.86v73.95h-9.69v-73.95h-23.86v-8.74h57.41V1118.76z M1237.01,1189.4v-11.46c1.3,1.16,2.87,2.19,4.71,3.11
		c1.81,0.93,3.74,1.71,5.75,2.34c2.03,0.63,4.04,1.12,6.08,1.48c2.03,0.33,3.92,0.51,5.65,0.51c5.95,0,10.4-1.1,13.33-3.31
		c2.93-2.21,4.41-5.4,4.41-9.53c0-2.25-0.49-4.17-1.48-5.83c-0.96-1.65-2.32-3.17-4.06-4.53c-1.73-1.38-3.78-2.68-6.14-3.94
		c-2.36-1.24-4.9-2.56-7.62-3.94c-2.89-1.48-5.57-2.95-8.07-4.45c-2.5-1.5-4.67-3.15-6.52-4.96c-1.83-1.81-3.29-3.86-4.35-6.14
		c-1.04-2.3-1.58-4.98-1.58-8.05c0-3.78,0.83-7.05,2.48-9.84c1.65-2.8,3.82-5.1,6.52-6.89c2.7-1.81,5.75-3.17,9.19-4.06
		c3.44-0.89,6.95-1.32,10.53-1.32c8.15,0,14.1,0.98,17.82,2.95v10.87c-4.88-3.39-11.14-5.08-18.8-5.08c-2.11,0-4.21,0.22-6.34,0.67
		c-2.11,0.43-4,1.16-5.65,2.17c-1.65,1-2.99,2.3-4.04,3.88c-1.04,1.58-1.56,3.5-1.56,5.79c0,2.11,0.39,3.94,1.18,5.47
		c0.79,1.54,1.95,2.95,3.49,4.21c1.53,1.28,3.41,2.5,5.61,3.7c2.2,1.18,4.76,2.5,7.64,3.92c2.95,1.46,5.77,2.99,8.41,4.63
		c2.66,1.61,4.98,3.39,6.97,5.36c2.01,1.97,3.58,4.13,4.76,6.52c1.16,2.38,1.75,5.12,1.75,8.21c0,4.08-0.79,7.52-2.38,10.36
		c-1.59,2.82-3.76,5.12-6.46,6.89c-2.72,1.77-5.85,3.05-9.37,3.84c-3.54,0.79-7.27,1.18-11.18,1.18c-1.3,0-2.91-0.1-4.84-0.31
		c-1.93-0.22-3.88-0.51-5.89-0.93c-1.99-0.39-3.88-0.91-5.67-1.5C1239.51,1190.8,1238.09,1190.13,1237.01,1189.4z M1193.32,1192.71
		h-43.83v-82.69h41.94v8.74h-32.25v27.52h29.89v8.74h-29.89v28.94h34.14V1192.71z M1059.81,1154.2v29.77h13.15
		c5.67,0,10.08-1.34,13.21-4.04c3.13-2.7,4.71-6.38,4.71-11.08c0-9.76-6.65-14.65-19.95-14.65H1059.81z M1059.81,1118.76v26.7h9.9
		c5.3,0,9.45-1.28,12.48-3.84c3.03-2.56,4.55-6.16,4.55-10.81c0-8.03-5.28-12.05-15.83-12.05H1059.81z M1050.12,1192.71v-82.69
		h23.51c7.15,0,12.8,1.75,16.99,5.24c4.19,3.5,6.28,8.05,6.28,13.66c0,4.69-1.26,8.76-3.8,12.23c-2.54,3.47-6.04,5.93-10.49,7.38
		v0.24c5.57,0.65,10.04,2.76,13.41,6.3c3.35,3.56,5.02,8.19,5.02,13.88c0,7.07-2.54,12.8-7.62,17.19
		c-5.06,4.39-11.46,6.58-19.2,6.58H1050.12z M970.16,1192.71h-43.83v-82.69h41.94v8.74h-32.25v27.52h29.89v8.74h-29.89v28.94h34.14
		V1192.71z M872.94,1192.71h-9.69v-37.68h-42.76v37.68h-9.69v-82.69h9.69v36.27h42.76v-36.27h9.69V1192.71z M766.14,1118.76h-23.86
		v73.95h-9.69v-73.95h-23.86v-8.74h57.41V1118.76z"/>
</g>
</svg>
